<svg width="50" height="50" viewBox="0 0 50 50" fill="none" xmlns="http://www.w3.org/2000/svg">
<path d="M49.1667 3.37077V46.6291C49.1591 46.7222 49.1158 46.8088 49.0459 46.8708C49.0167 47.4382 48.7782 47.9746 48.3765 48.3764C47.9747 48.7781 47.4383 49.0166 46.8709 49.0458H34.1834V30.4374H40.1042C40.4667 30.4374 40.4667 30.4374 40.5875 30.0749L40.95 27.0541C41.0709 25.8458 41.1917 24.6374 41.4334 23.4291C41.675 22.2208 41.4334 23.0666 41.1917 23.0666H34.1834V18.3541C34.1834 17.9916 34.3042 17.5083 34.3042 17.1458C34.3567 16.651 34.5773 16.1892 34.9291 15.8373C35.2809 15.4855 35.7428 15.2649 36.2375 15.2124L37.8084 14.9708H41.4334C41.675 14.9708 41.675 14.9708 41.675 14.7291V8.5666C41.675 8.44577 41.675 8.32493 41.4334 8.32493H35.875C34.4976 8.28713 33.131 8.57703 31.8875 9.17077C30.9678 9.48031 30.1195 9.97136 29.3931 10.6148C28.6666 11.2582 28.0767 12.041 27.6584 12.9166C26.9692 14.26 26.6363 15.7578 26.6917 17.2666C26.5709 19.0791 26.6917 21.0124 26.6917 22.9458H20.5292C20.2875 22.9458 20.2875 23.0666 20.2875 23.1874V30.0749C20.2875 30.3166 20.2875 30.3166 20.5292 30.3166H26.6917V48.9249C26.6218 48.9869 26.5785 49.0735 26.5709 49.1666H3.12921C2.5618 49.1375 2.02536 48.8989 1.62362 48.4972C1.22187 48.0955 0.983362 47.559 0.954207 46.9916C0.833374 46.9916 0.833374 46.8708 0.833374 46.7499V3.37077C0.833374 3.24993 0.833374 3.1291 0.954207 3.1291C0.983362 2.5617 1.22187 2.02526 1.62362 1.62351C2.02536 1.22177 2.5618 0.983256 3.12921 0.954102H46.8709C47.4383 0.983256 47.9747 1.22177 48.3765 1.62351C48.7782 2.02526 49.0167 2.5617 49.0459 3.1291L49.1667 3.37077Z" fill="black"/>
</svg>
