<svg width="58" height="58" viewBox="0 0 58 58" fill="none" xmlns="http://www.w3.org/2000/svg">
<path d="M29 23.0066C27.8147 23.0066 26.6559 23.3581 25.6703 24.0166C24.6847 24.6752 23.9165 25.6112 23.4629 26.7064C23.0093 27.8015 22.8906 29.0066 23.1219 30.1692C23.3531 31.3318 23.9239 32.3997 24.7621 33.2378C25.6003 34.076 26.6682 34.6468 27.8308 34.8781C28.9934 35.1093 30.1985 34.9907 31.2936 34.537C32.3887 34.0834 33.3248 33.3152 33.9833 32.3296C34.6419 31.344 34.9934 30.1853 34.9934 28.9999C34.9934 28.2129 34.8384 27.4335 34.5372 26.7064C34.236 25.9792 33.7945 25.3185 33.238 24.762C32.6814 24.2055 32.0207 23.764 31.2936 23.4628C30.5664 23.1616 29.7871 23.0066 29 23.0066ZM52.9975 17.0858C52.9848 15.2195 52.6412 13.3703 51.9825 11.6241C51.4975 10.3463 50.747 9.18589 49.7805 8.21945C48.8141 7.253 47.6537 6.50249 46.3759 6.01742C44.6297 5.35879 42.7805 5.01513 40.9142 5.00242C37.7967 4.83325 36.8784 4.83325 29 4.83325C21.1217 4.83325 20.2034 4.83325 17.0859 5.00242C15.2196 5.01513 13.3704 5.35879 11.6242 6.01742C10.3464 6.50249 9.18602 7.253 8.21957 8.21945C7.25313 9.18589 6.50261 10.3463 6.01754 11.6241C5.35891 13.3703 5.01525 15.2195 5.00254 17.0858C4.83337 20.2033 4.83337 21.1216 4.83337 28.9999C4.83337 36.8783 4.83337 37.7966 5.00254 40.9141C5.02855 42.7869 5.37175 44.6418 6.01754 46.3999C6.50046 47.6719 7.25035 48.8255 8.21671 49.7832C9.17901 50.7555 10.3419 51.506 11.6242 51.9824C13.3704 52.641 15.2196 52.9847 17.0859 52.9974C20.2034 53.1666 21.1217 53.1666 29 53.1666C36.8784 53.1666 37.7967 53.1666 40.9142 52.9974C42.7805 52.9847 44.6297 52.641 46.3759 51.9824C47.6582 51.506 48.8211 50.7555 49.7834 49.7832C50.7497 48.8255 51.4996 47.6719 51.9825 46.3999C52.6405 44.6451 52.9841 42.7881 52.9975 40.9141C53.1667 37.7966 53.1667 36.8783 53.1667 28.9999C53.1667 21.1216 53.1667 20.2033 52.9975 17.0858ZM46.8592 36.4191C46.7817 37.9104 46.4634 39.3794 45.9167 40.7691C45.4476 41.9283 44.7501 42.9814 43.8658 43.8657C42.9815 44.75 41.9284 45.4474 40.7692 45.9166C39.3664 46.4328 37.8892 46.7184 36.395 46.7624C34.4859 46.7624 33.9784 46.7624 29 46.7624C24.0217 46.7624 23.5142 46.7624 21.605 46.7624C20.1109 46.7184 18.6337 46.4328 17.2309 45.9166C16.0325 45.4712 14.9502 44.7608 14.065 43.8382C13.1894 42.9713 12.5132 41.9239 12.0834 40.7691C11.5651 39.3677 11.2873 37.8888 11.2617 36.3949C11.2617 34.4858 11.2617 33.9783 11.2617 28.9999C11.2617 24.0216 11.2617 23.5141 11.2617 21.6049C11.2873 20.111 11.5651 18.6321 12.0834 17.2308C12.5287 16.0323 13.2392 14.9501 14.1617 14.0649C15.0325 13.194 16.0788 12.5185 17.2309 12.0833C18.6337 11.5671 20.1109 11.2814 21.605 11.2374C23.5142 11.2374 24.0217 11.2374 29 11.2374C33.9784 11.2374 34.4859 11.2374 36.395 11.2374C37.8892 11.2814 39.3664 11.5671 40.7692 12.0833C41.9676 12.5286 43.0499 13.2391 43.935 14.1616C44.8107 15.0286 45.4869 16.0759 45.9167 17.2308C46.4329 18.6336 46.7185 20.1108 46.7625 21.6049C46.7625 23.5141 46.7625 24.0216 46.7625 28.9999C46.7625 33.9783 46.9317 34.4858 46.8592 36.3949V36.4191ZM42.9925 18.4391C42.7048 17.6585 42.2511 16.9496 41.6629 16.3613C41.0746 15.773 40.3657 15.3193 39.585 15.0316C38.5132 14.66 37.3843 14.4801 36.25 14.4999C34.365 14.4999 33.8334 14.4999 29 14.4999C24.1667 14.4999 23.635 14.4999 21.75 14.4999C20.61 14.5111 19.481 14.7238 18.415 15.1283C17.6464 15.4029 16.945 15.8381 16.3575 16.4047C15.7699 16.9714 15.3098 17.6567 15.0075 18.4149C14.6566 19.4912 14.4851 20.6179 14.5 21.7499C14.5 23.6349 14.5 24.1666 14.5 28.9999C14.5 33.8333 14.5 34.3649 14.5 36.2499C14.524 37.3886 14.7363 38.5155 15.1284 39.5849C15.4161 40.3655 15.8698 41.0744 16.4581 41.6627C17.0463 42.251 17.7553 42.7047 18.5359 42.9924C19.567 43.3716 20.652 43.5837 21.75 43.6207C23.635 43.6207 24.1667 43.6207 29 43.6207C33.8334 43.6207 34.365 43.6207 36.25 43.6207C37.3901 43.6096 38.5191 43.3969 39.585 42.9924C40.3657 42.7047 41.0746 42.251 41.6629 41.6627C42.2511 41.0744 42.7048 40.3655 42.9925 39.5849C43.397 38.519 43.6097 37.3899 43.6209 36.2499C43.6209 34.3649 43.6209 33.8333 43.6209 28.9999C43.6209 24.1666 43.6209 23.6349 43.6209 21.7499C43.6216 20.6088 43.4085 19.4776 42.9925 18.4149V18.4391ZM29 38.2316C27.7889 38.2316 26.5896 37.9926 25.4709 37.5284C24.3522 37.0642 23.3361 36.3838 22.4808 35.5262C21.6255 34.6687 20.9478 33.6508 20.4865 32.5309C20.0252 31.411 19.7894 30.2111 19.7925 28.9999C19.7925 27.173 20.3346 25.3872 21.35 23.8686C22.3655 22.3499 23.8087 21.1667 25.497 20.4687C27.1853 19.7707 29.0427 19.5893 30.8341 19.9474C32.6255 20.3056 34.2704 21.1872 35.5605 22.4807C36.8506 23.7742 37.728 25.4214 38.0814 27.2138C38.4349 29.0061 38.2486 30.8631 37.5462 32.5495C36.8438 34.2359 35.6568 35.6761 34.1354 36.6875C32.6141 37.699 30.8269 38.2364 29 38.2316ZM38.6667 21.5808C38.1325 21.5242 37.6381 21.272 37.2788 20.8726C36.9195 20.4732 36.7207 19.955 36.7207 19.4178C36.7207 18.8806 36.9195 18.3624 37.2788 17.9631C37.6381 17.5637 38.1325 17.3115 38.6667 17.2549C39.2009 17.3115 39.6953 17.5637 40.0546 17.9631C40.4139 18.3624 40.6128 18.8806 40.6128 19.4178C40.6128 19.955 40.4139 20.4732 40.0546 20.8726C39.6953 21.272 39.2009 21.5242 38.6667 21.5808Z" fill="black"/>
</svg>
