<svg width="50" height="50" viewBox="0 0 50 50" fill="none" xmlns="http://www.w3.org/2000/svg">
<path d="M34.6964 16.4465L16.3564 27.8212C16.0335 28.0214 15.8866 28.4146 15.9993 28.7775L18.4594 36.7047C18.511 36.8712 18.7537 36.8483 18.7733 36.675L19.3712 31.3595C19.3942 31.1542 19.4928 30.9647 19.6476 30.8278L35.1782 17.0941C35.55 16.7654 35.1182 16.1848 34.6964 16.4465Z" fill="black"/>
<path d="M0 0V50H50V0H0ZM41.6783 12.9921L35.9698 40.2845C35.7019 41.5652 34.1998 42.1404 33.145 41.3662L24.526 35.0395L20.1331 39.5247C19.3622 40.3119 18.0304 39.9933 17.6991 38.9424L14.5283 28.881L6.03196 26.372C4.91726 26.0429 4.85155 24.4888 5.93453 24.0667L39.3702 11.0372C40.6428 10.5413 41.958 11.6551 41.6783 12.9921Z" fill="black"/>
</svg>
